<?xml version="1.0" encoding="UTF-8"?>
<svg width="32px" height="32px" viewBox="0 0 32 32" version="1.1" xmlns="http://www.w3.org/2000/svg">
    <circle fill="#8E24AA" cx="16" cy="16" r="16"/>
    <path d="M10.5 9.5c.28-.3.64-.49 1.03-.54L23.2 8.9c.24-.03.48.07.63.26.16.18.22.42.16.65l-.03.13c-.06.19-.18.35-.34.47l-11.67 8.39c-.13.1-.29.15-.45.15H9.77c-.31 0-.61-.14-.82-.37-.21-.23-.3-.55-.25-.86l.08-.38c.06-.3.24-.56.5-.74L10.5 9.5zm0 6.5c.28-.3.64-.49 1.03-.54l11.67-.06c.24-.03.48.07.63.26.16.18.22.42.16.65l-.03.13c-.06.19-.18.35-.34.47l-11.67 8.39c-.13.1-.29.15-.45.15H9.77c-.31 0-.61-.14-.82-.37-.21-.23-.3-.55-.25-.86l.08-.38c.06-.3.24-.56.5-.74L10.5 16z" fill="#FFFFFF"/>
</svg>